<svg width="44" height="44" viewBox="0 0 44 44" fill="none" xmlns="http://www.w3.org/2000/svg">
<path fill-rule="evenodd" clip-rule="evenodd" d="M22 -0.00268555C9.84974 -0.00268555 0 9.84824 0 22C0 34.1517 9.84974 44.0026 22 44.0026C34.1503 44.0026 44 34.1517 44 22C44 9.84824 34.1503 -0.00268555 22 -0.00268555ZM10.5615 18.2209H15.5472V33.2026H10.5615V18.2209ZM15.8755 13.5864C15.8432 12.1175 14.7928 10.9986 13.0873 10.9986C11.3817 10.9986 10.2667 12.1175 10.2667 13.5864C10.2667 15.0249 11.3488 16.176 13.0226 16.176H13.0544C14.7928 16.176 15.8755 15.0249 15.8755 13.5864ZM27.787 17.8691C31.0679 17.8691 33.5274 20.0108 33.5274 24.6125L33.5272 33.2026H28.5418V25.1874C28.5418 23.1741 27.8203 21.8003 26.0155 21.8003C24.6381 21.8003 23.8176 22.7265 23.4573 23.621C23.3255 23.9415 23.2931 24.3882 23.2931 24.836V33.203H18.3068C18.3068 33.203 18.3726 19.6271 18.3068 18.2213H23.2931V20.3433C23.9548 19.3232 25.14 17.8691 27.787 17.8691Z" fill="#CE4115"/>
</svg>
